<svg xmlns="http://www.w3.org/2000/svg" viewBox="113.11 197.81 379.5 270.51">
  <g transform="matrix(1.333333, 0, 0, -1.333333, 0, 666.666687)" id="g10">
    <g transform="scale(0.1)" id="g12">
      <path id="path16" style="fill: rgb(229, 225, 249); fill-opacity: 1; fill-rule: nonzero; stroke: none;" d="M 3447.167 1608.948 C 3452.79 1613.162 3458.378 1617.5 3463.912 1621.977 C 3627.726 1754.373 3725.913 1972.334 3685.479 2191.434 C 3640.838 2433.352 3392.557 2516.851 3203.935 2601.926 C 3083.25 2656.356 2978.666 2750.225 2923.739 2877.356 C 2860.474 3023.782 2845.573 3181.69 2743.407 3308.808 C 2664.501 3406.987 2549.956 3467.911 2432.655 3495.495 C 2194.095 3551.582 1930.298 3489.782 1718.188 3372.529 C 1522.355 3264.284 1353.94 3111.164 1190.729 2956.103 C 1055.674 2827.796 892.735 2725.072 854.643 2519.546 C 814.287 2301.799 974.142 2118.725 1135.359 2008.146 C 1341.07 1867.045 1578.553 1785.646 1810.572 1708.875 C 2091.287 1615.988 2380.754 1554.808 2672.198 1517.974 C 2929.12 1485.498 3224.48 1442.246 3447.167 1608.948"/>
      <path id="path74" style="fill:#46d9e0;fill-opacity:1;fill-rule:nonzero;stroke:none" d="M 2546.085 1840.356 L 2550.132 1840.356 L 2550.132 1949.247 L 2546.085 1949.247 Z"/>
      <path id="path176" style="fill:#a386f4;fill-opacity:1;fill-rule:nonzero;stroke:none" d="M 2319.665 3185.886 L 2300.665 3185.886 L 2300.665 3374.036 L 2319.665 3374.036 L 2319.665 3185.886"/>
      <path id="path178" style="fill:#602ca2;fill-opacity:1;fill-rule:nonzero;stroke:none" d="M 2429.895 3128.876 C 2429.895 3086.896 2376.285 3052.866 2310.165 3052.866 C 2244.045 3052.866 2190.435 3086.896 2190.435 3128.876 C 2190.435 3170.866 2244.045 3204.896 2310.165 3204.896 C 2376.285 3204.896 2429.895 3170.866 2429.895 3128.876"/>
      <path id="path180" style="fill:#ffffff;fill-opacity:1;fill-rule:nonzero;stroke:none" d="M 2630.035 2071.836 L 2592.615 1898.516 L 2586.355 1869.436 C 2558.285 1739.406 2443.255 1646.526 2310.125 1646.526 C 2177.065 1646.526 2062.04 1739.406 2033.974 1869.436 L 2027.708 1898.586 L 1990.29 2071.836 C 1968.278 2173.736 2045.884 2269.916 2150.075 2269.916 L 2470.255 2269.916 C 2574.445 2269.916 2652.045 2173.736 2630.035 2071.836"/>
      <path id="path182" style="fill:#602ca2;fill-opacity:1;fill-rule:nonzero;stroke:none" d="M 2897.385 2726.076 C 2897.385 2630.786 2827.865 2553.536 2742.105 2553.536 C 2656.355 2553.536 2586.825 2630.786 2586.825 2726.076 C 2586.825 2821.366 2656.355 2898.616 2742.105 2898.616 C 2827.865 2898.616 2897.385 2821.366 2897.385 2726.076"/>
      <path id="path184" style="fill:#602ca2;fill-opacity:1;fill-rule:nonzero;stroke:none" d="M 2033.493 2726.076 C 2033.493 2630.786 1963.974 2553.536 1878.216 2553.536 C 1792.458 2553.536 1722.942 2630.786 1722.942 2726.076 C 1722.942 2821.366 1792.458 2898.616 1878.216 2898.616 C 1963.974 2898.616 2033.493 2821.366 2033.493 2726.076"/>
      <path id="path186" style="fill:#ffffff;fill-opacity:1;fill-rule:nonzero;stroke:none" d="M 2470.285 2209.276 L 2150.035 2209.276 L 2275.825 2345.426 L 2344.495 2345.426 L 2470.285 2209.276"/>
      <path id="path188" style="fill:#ffffff;fill-opacity:1;fill-rule:nonzero;stroke:none" d="M 2831.825 2728.406 C 2831.825 2713.336 2830.815 2698.386 2828.925 2683.716 C 2801.265 2472.036 2579.555 2307.076 2310.125 2307.076 C 2040.837 2307.076 1819.13 2471.966 1791.47 2683.586 L 1791.47 2683.646 C 1789.517 2698.386 1788.505 2713.266 1788.505 2728.406 C 1788.505 2961.156 2022.06 3149.816 2310.125 3149.816 C 2598.265 3149.816 2831.825 2961.156 2831.825 2728.406"/>
      <path id="path190" style="fill:#602ca2;fill-opacity:1;fill-rule:nonzero;stroke:none" d="M 2735.835 2748.066 C 2735.835 2742.166 2735.015 2736.326 2733.475 2730.596 C 2710.905 2647.836 2529.985 2583.336 2310.135 2583.336 C 2090.385 2583.336 1909.478 2647.806 1886.903 2730.536 L 1886.903 2730.566 C 1885.31 2736.326 1884.485 2742.136 1884.485 2748.066 C 1884.485 2839.056 2075.067 2912.816 2310.135 2912.816 C 2545.255 2912.816 2735.835 2839.056 2735.835 2748.066"/>
      <path id="path192" style="fill:#e5e6e7;fill-opacity:1;fill-rule:nonzero;stroke:none" d="M 2828.925 2683.716 C 2801.265 2472.036 2579.555 2307.076 2310.125 2307.076 C 2040.837 2307.076 1819.13 2471.966 1791.47 2683.586 C 1887.981 2547.286 2083.981 2454.066 2310.125 2454.066 C 2536.345 2454.066 2732.415 2547.356 2828.925 2683.716"/>
      <path id="path194" style="fill:#46d9e0;fill-opacity:1;fill-rule:nonzero;stroke:none" d="M 2189.465 2750.696 C 2189.465 2711.866 2157.975 2680.386 2119.145 2680.386 C 2080.31 2680.386 2048.825 2711.866 2048.825 2750.696 C 2048.825 2789.536 2080.31 2821.016 2119.145 2821.016 C 2157.975 2821.016 2189.465 2789.536 2189.465 2750.696"/>
      <path id="path196" style="fill:#602ca2;fill-opacity:1;fill-rule:nonzero;stroke:none" d="M 2173.535 2750.696 C 2173.535 2720.656 2149.185 2696.306 2119.145 2696.306 C 2089.105 2696.306 2064.751 2720.656 2064.751 2750.696 C 2064.751 2780.736 2089.105 2805.086 2119.145 2805.086 C 2149.185 2805.086 2173.535 2780.736 2173.535 2750.696"/>
      <path id="path198" style="fill:#ffffff;fill-opacity:1;fill-rule:nonzero;stroke:none" d="M 2114.055 2773.546 C 2114.055 2766.456 2108.305 2760.706 2101.215 2760.706 C 2094.125 2760.706 2088.384 2766.456 2088.384 2773.546 C 2088.384 2780.646 2094.125 2786.386 2101.215 2786.386 C 2108.305 2786.386 2114.055 2780.646 2114.055 2773.546"/>
      <path id="path200" style="fill:#46d9e0;fill-opacity:1;fill-rule:nonzero;stroke:none" d="M 2430.815 2750.696 C 2430.815 2711.866 2462.295 2680.386 2501.125 2680.386 C 2539.955 2680.386 2571.445 2711.866 2571.445 2750.696 C 2571.445 2789.536 2539.955 2821.016 2501.125 2821.016 C 2462.295 2821.016 2430.815 2789.536 2430.815 2750.696"/>
      <path id="path202" style="fill:#602ca2;fill-opacity:1;fill-rule:nonzero;stroke:none" d="M 2446.735 2750.696 C 2446.735 2720.656 2471.085 2696.306 2501.125 2696.306 C 2531.165 2696.306 2555.525 2720.656 2555.525 2750.696 C 2555.525 2780.736 2531.165 2805.086 2501.125 2805.086 C 2471.085 2805.086 2446.735 2780.736 2446.735 2750.696"/>
      <path id="path204" style="fill:#ffffff;fill-opacity:1;fill-rule:nonzero;stroke:none" d="M 2506.215 2773.546 C 2506.215 2766.456 2511.965 2760.706 2519.055 2760.706 C 2526.145 2760.706 2531.885 2766.456 2531.885 2773.546 C 2531.885 2780.646 2526.145 2786.386 2519.055 2786.386 C 2511.965 2786.386 2506.215 2780.646 2506.215 2773.546"/>
      <path id="path206" style="fill:#602ca2;fill-opacity:1;fill-rule:nonzero;stroke:none" d="M 2131.055 2490.576 C 2168.555 2442.996 2234.915 2412.576 2310.135 2412.506 C 2385.355 2412.576 2451.725 2442.996 2489.225 2490.576 C 2493.815 2496.426 2492.795 2504.886 2486.945 2509.476 C 2481.095 2514.066 2472.625 2513.046 2468.045 2507.196 C 2436.975 2467.426 2378.095 2439.356 2310.135 2439.426 C 2242.175 2439.356 2183.295 2467.426 2152.235 2507.196 C 2147.645 2513.046 2139.185 2514.066 2133.335 2509.476 C 2127.485 2504.886 2126.465 2496.426 2131.055 2490.576"/>
      <path id="path208" style="fill:#602ca2;fill-opacity:1;fill-rule:nonzero;stroke:none" d="M 2362.425 3385.116 C 2362.425 3356.256 2339.025 3332.856 2310.165 3332.856 C 2281.295 3332.856 2257.905 3356.256 2257.905 3385.116 C 2257.905 3413.986 2281.295 3437.376 2310.165 3437.376 C 2339.025 3437.376 2362.425 3413.986 2362.425 3385.116"/>
      <path id="path210" style="fill:#ffffff;fill-opacity:1;fill-rule:nonzero;stroke:none" d="M 2807.065 1984.476 C 2786.565 1960.566 2698.465 2002.466 2610.285 2078.066 C 2522.105 2153.666 2467.245 2234.346 2487.755 2258.256 C 2508.255 2282.166 2596.355 2240.256 2684.535 2164.656 C 2772.705 2089.056 2827.575 2008.386 2807.065 1984.476"/>
      <path id="path212" style="fill:#ffffff;fill-opacity:1;fill-rule:nonzero;stroke:none" d="M 1798.216 1975.916 C 1818.72 1952.006 1906.817 1993.916 1994.997 2069.516 C 2083.177 2145.116 2138.035 2225.786 2117.535 2249.696 C 2097.035 2273.616 2008.931 2231.716 1920.755 2156.106 C 1832.575 2080.506 1777.712 1999.836 1798.216 1975.916"/>
      <path id="path214" style="fill:#e5e6e7;fill-opacity:1;fill-rule:nonzero;stroke:none" d="M 2592.615 1898.516 L 2586.355 1869.436 C 2558.285 1739.406 2443.255 1646.526 2310.125 1646.526 C 2177.065 1646.526 2062.04 1739.406 2033.974 1869.436 L 2027.708 1898.586 C 2094.075 1815.936 2195.915 1763.096 2310.125 1763.096 C 2424.345 1763.096 2526.185 1815.936 2592.615 1898.516"/>
      <path id="path216" style="fill:#602ca2;fill-opacity:1;fill-rule:nonzero;stroke:none" d="M 2369.715 1990.676 C 2369.715 1957.786 2343.055 1931.116 2310.165 1931.116 C 2277.265 1931.116 2250.605 1957.786 2250.605 1990.676 C 2250.605 2023.576 2277.265 2050.236 2310.165 2050.236 C 2343.055 2050.236 2369.715 2023.576 2369.715 1990.676"/>
    </g>
  </g>
</svg>